<?xml version="1.0" encoding="UTF-8" standalone="no"?>
<!DOCTYPE svg PUBLIC "-//W3C//DTD SVG 1.1//EN" "http://www.w3.org/Graphics/SVG/1.1/DTD/svg11.dtd">
<svg version="1.1" xmlns="http://www.w3.org/2000/svg" xmlns:xlink="http://www.w3.org/1999/xlink" preserveAspectRatio="xMidYMid meet" viewBox="52.43243243243231 40 323.18425515677495 297.67272470959045" width="300" height="300"><defs><path d="M334.62 190C334.62 261.75 276.37 320 204.62 320C132.87 320 74.62 261.75 74.62 190C74.62 118.25 132.87 60 204.62 60C276.37 60 334.62 118.25 334.62 190Z" id="a3MSnzK4mP"></path><path d="M52.43 65.15L314.66 65.15L314.66 321.64L52.43 321.64L52.43 65.15Z" id="d6YpW4y8Vh"></path><path d="M120.51 236.55L186.16 109.73L200.15 117.31L134.5 244.13L120.51 236.55Z" id="d12i4vm7DE"></path><path d="M113.51 232.76L179.16 105.94L193.15 113.52L127.51 240.34L113.51 232.76Z" id="c1bV0UE5Z3"></path><path d="M211.01 280.13L182.76 105.59L204.33 101.79L232.58 276.33L211.01 280.13Z" id="hhKKmSODo"></path><path d="M156.83 176.66L196.69 176.66L196.69 193.13L156.83 193.13L156.83 176.66Z" id="cI2ESAtW3"></path><path d="M156.83 168.43L196.69 168.43L196.69 184.89L156.83 184.89L156.83 168.43Z" id="droJ79Vxt"></path><path d="M208.76 280.13L180.51 105.59L196.2 102.83L224.44 277.37L208.76 280.13Z" id="a2krBfERPF"></path><path d="M375.62 292.68L117.28 337.67L73.27 84.99L331.61 40L375.62 292.68Z" id="b8ao4KYnb"></path><path d="M292.85 145.42L227.2 272.23L213.21 264.65L278.86 137.84L292.85 145.42Z" id="iszh8tVJO"></path><path d="M299.85 149.2L234.2 276.02L220.21 268.44L285.86 141.63L299.85 149.2Z" id="c2PvqVEC3y"></path><path d="M202.35 101.83L230.6 276.37L209.03 280.17L180.78 105.63L202.35 101.83Z" id="d32ApqAKHF"></path><path d="M256.53 205.3L216.67 205.3L216.67 188.84L256.53 188.84L256.53 205.3Z" id="anbrEhcM6"></path><path d="M256.53 213.53L216.67 213.53L216.67 197.07L256.53 197.07L256.53 213.53Z" id="a29EaOOUgp"></path><path d="M204.6 101.83L232.85 276.37L217.16 279.13L188.92 104.59L204.6 101.83Z" id="b2cHciCgCN"></path></defs><g><g><use xlink:href="#a3MSnzK4mP" opacity="1" fill="#1252cf" fill-opacity="1"></use></g><g><g><use xlink:href="#d6YpW4y8Vh" opacity="1" fill="#09166b" fill-opacity="0"></use></g><g><use xlink:href="#d12i4vm7DE" opacity="1" fill="#fcfcff" fill-opacity="1"></use></g><g><use xlink:href="#c1bV0UE5Z3" opacity="1" fill="#cf12a1" fill-opacity="1"></use></g><g><use xlink:href="#hhKKmSODo" opacity="1" fill="#fcfcff" fill-opacity="1"></use></g><g><use xlink:href="#cI2ESAtW3" opacity="1" fill="#fcfcff" fill-opacity="1"></use></g><g><use xlink:href="#droJ79Vxt" opacity="1" fill="#cf12a1" fill-opacity="1"></use></g><g><use xlink:href="#a2krBfERPF" opacity="1" fill="#a2dd15" fill-opacity="1"></use></g><g><use xlink:href="#b8ao4KYnb" opacity="1" fill="#09166b" fill-opacity="0"></use></g><g><use xlink:href="#iszh8tVJO" opacity="1" fill="#fcfcff" fill-opacity="1"></use></g><g><use xlink:href="#c2PvqVEC3y" opacity="1" fill="#cf12a1" fill-opacity="1"></use></g><g><use xlink:href="#d32ApqAKHF" opacity="1" fill="#fcfcff" fill-opacity="1"></use></g><g><use xlink:href="#anbrEhcM6" opacity="1" fill="#fcfcff" fill-opacity="1"></use></g><g><use xlink:href="#a29EaOOUgp" opacity="1" fill="#cf12a1" fill-opacity="1"></use></g><g><use xlink:href="#b2cHciCgCN" opacity="1" fill="#a2dd15" fill-opacity="1"></use></g></g></g></svg>