<?xml version="1.0" encoding="UTF-8" standalone="no"?>
<!DOCTYPE svg PUBLIC "-//W3C//DTD SVG 1.1//EN" "http://www.w3.org/Graphics/SVG/1.1/DTD/svg11.dtd">
<svg version="1.1" xmlns="http://www.w3.org/2000/svg" xmlns:xlink="http://www.w3.org/1999/xlink" preserveAspectRatio="xMidYMid meet" viewBox="46.473971032098945 18.53258232278708 391.82508808804096 371.3977414123556" width="387.83" height="367.4"><defs><path d="M47.47 148.1L291.65 52.49L385.17 291.33L140.98 386.93L47.47 148.1Z" id="amhtkX2Ou"></path><path d="M172.53 285.25L187.43 143.23L203.22 145.19L188.32 287.21L172.53 285.25Z" id="b3S4vR6O2A"></path><path d="M164.63 284.28L179.53 142.26L195.32 144.21L180.43 286.23L164.63 284.28Z" id="gJdsDKkCs"></path><path d="M272.69 292.85L182.75 140.62L201.46 129.21L291.39 281.44L272.69 292.85Z" id="a18YkG7ZP9"></path><path d="M184.52 216.25L221.63 201.72L227.63 217.05L190.52 231.58L184.52 216.25Z" id="b2atyASTu8"></path><path d="M181.52 208.58L218.63 194.05L224.63 209.38L187.52 223.91L181.52 208.58Z" id="bXbjWfXF7"></path><path d="M270.6 293.66L180.66 141.44L194.26 133.15L284.19 285.37L270.6 293.66Z" id="aXiVg7rBb"></path><path d="M435.3 200.05L250.74 386.34L68.53 205.82L253.09 19.53L435.3 200.05Z" id="bsVYoT7HH"></path><path d="M299.79 137.56L284.89 279.58L269.1 277.63L283.99 135.61L299.79 137.56Z" id="d2GKOzjvK"></path><path d="M307.68 138.54L292.79 280.56L276.99 278.6L291.89 136.58L307.68 138.54Z" id="cQSorLJS8"></path><path d="M199.62 129.97L289.56 282.2L270.86 293.6L180.92 141.38L199.62 129.97Z" id="a3d5HycQgd"></path><path d="M287.8 206.57L250.68 221.1L244.68 205.77L281.79 191.24L287.8 206.57Z" id="boR21eyD4"></path><path d="M290.8 214.23L253.68 228.76L247.68 213.43L284.79 198.9L290.8 214.23Z" id="f3gSwHk1te"></path><path d="M201.72 129.15L291.66 281.38L278.06 289.67L188.12 137.44L201.72 129.15Z" id="bm6gxCOOv"></path></defs><g><g><use xlink:href="#amhtkX2Ou" opacity="1" fill="#09166b" fill-opacity="0"></use></g><g><use xlink:href="#b3S4vR6O2A" opacity="1" fill="#fcfcff" fill-opacity="1"></use></g><g><use xlink:href="#gJdsDKkCs" opacity="1" fill="#cf12a1" fill-opacity="1"></use></g><g><use xlink:href="#a18YkG7ZP9" opacity="1" fill="#fcfcff" fill-opacity="1"></use></g><g><use xlink:href="#b2atyASTu8" opacity="1" fill="#fcfcff" fill-opacity="1"></use></g><g><use xlink:href="#bXbjWfXF7" opacity="1" fill="#cf12a1" fill-opacity="1"></use></g><g><use xlink:href="#aXiVg7rBb" opacity="1" fill="#a2dd15" fill-opacity="1"></use></g><g><use xlink:href="#bsVYoT7HH" opacity="1" fill="#09166b" fill-opacity="0"></use></g><g><use xlink:href="#d2GKOzjvK" opacity="1" fill="#fcfcff" fill-opacity="1"></use></g><g><use xlink:href="#cQSorLJS8" opacity="1" fill="#cf12a1" fill-opacity="1"></use></g><g><use xlink:href="#a3d5HycQgd" opacity="1" fill="#cf12a1" fill-opacity="1"></use><g><use xlink:href="#a3d5HycQgd" opacity="1" fill-opacity="0" stroke="#1f6f0a" stroke-width="0" stroke-opacity="1"></use></g></g><g><use xlink:href="#boR21eyD4" opacity="1" fill="#fcfcff" fill-opacity="1"></use></g><g><use xlink:href="#f3gSwHk1te" opacity="1" fill="#cf12a1" fill-opacity="1"></use></g><g><use xlink:href="#bm6gxCOOv" opacity="1" fill="#a2dd15" fill-opacity="1"></use></g></g></svg>