<?xml version="1.0" encoding="UTF-8" standalone="no"?>
<!DOCTYPE svg PUBLIC "-//W3C//DTD SVG 1.1//EN" "http://www.w3.org/Graphics/SVG/1.1/DTD/svg11.dtd">
<svg version="1.1" xmlns="http://www.w3.org/2000/svg" xmlns:xlink="http://www.w3.org/1999/xlink" preserveAspectRatio="xMidYMid meet" viewBox="86.37617788115878 73.6398737010256 266.22972972972946 260.48648648648646" width="262.23" height="256.49"><defs><path d="M87.38 74.64L349.61 74.64L349.61 331.13L87.38 331.13L87.38 74.64Z" id="chbuwUWKy"></path><path d="M153.82 247.95L219.47 121.14L233.46 128.71L167.81 255.53L153.82 247.95Z" id="e3Oy6Ld6b1"></path><path d="M146.82 244.16L212.47 117.35L226.47 124.92L160.82 251.74L146.82 244.16Z" id="bn65jfOs"></path><path d="M244.32 291.54L216.07 117L237.64 113.19L265.89 287.73L244.32 291.54Z" id="cc9Rj7JkV"></path><path d="M190.14 188.06L230 188.06L230 204.53L190.14 204.53L190.14 188.06Z" id="a2fqJ5rmZY"></path><path d="M190.14 179.83L230 179.83L230 196.3L190.14 196.3L190.14 179.83Z" id="a2qB9iNGUR"></path><path d="M242.07 291.54L213.82 117L229.51 114.23L257.75 288.77L242.07 291.54Z" id="aKD7xMZKN"></path></defs><g><g><use xlink:href="#chbuwUWKy" opacity="1" fill="#09166b" fill-opacity="0"></use></g><g><g><use xlink:href="#e3Oy6Ld6b1" opacity="1" fill="#fcfcff" fill-opacity="1"></use></g><g><use xlink:href="#bn65jfOs" opacity="1" fill="#9494c0" fill-opacity="1"></use></g></g><g><use xlink:href="#cc9Rj7JkV" opacity="1" fill="#fcfcff" fill-opacity="1"></use></g><g><g><use xlink:href="#a2fqJ5rmZY" opacity="1" fill="#fcfcff" fill-opacity="1"></use></g><g><use xlink:href="#a2qB9iNGUR" opacity="1" fill="#9494c0" fill-opacity="1"></use></g></g><g><use xlink:href="#aKD7xMZKN" opacity="1" fill="#9494c0" fill-opacity="1"></use></g></g></svg>